<svg width="43" height="43" fill="none" xmlns="http://www.w3.org/2000/svg"><rect width="43" height="42.993" rx="8" fill="#5C65F6"/><path fill-rule="evenodd" clip-rule="evenodd" d="M34.979 21.162c.232 3.035-1.46 7.317-3.845 9.762-.294.304-.606.599-.926.866l-.017-.026s-19.627 1.24-20.366-17l-.036-.018a13.441 13.441 0 0110.022-6.72l.09-.009C20.328 8.01 20.897 8 21.61 8c1.104 0 2.358.562 2.679 1.838.222.883-.179 1.392-.392 1.66-.133.169-.204.259-.204.688 0 .276 0 .66.89.882l.979.242-.223.99c-.275 1.258.133 1.588.268 1.695.48.385 1.406.126 2.109-.152l1.023-.42.348 1.055c.4 1.23.96 1.374 1.148 1.419.596.15 1.148.053 1.718-.295l.195-.117.223-.035c1.477-.187 1.967.794 2.083 1.097.275.714.444 1.598.525 2.615" fill="#D8EDFF"/><path fill-rule="evenodd" clip-rule="evenodd" d="M30.19 31.764l.018.027a13.363 13.363 0 01-8.714 3.202C14.052 34.993 8 28.917 8 21.457c0-2.428.65-4.72 1.789-6.71l.035.017c.74 18.24 20.366 17 20.366 17" fill="#C7E5FF"/><path fill-rule="evenodd" clip-rule="evenodd" d="M15.039 27.362a2.08 2.08 0 002.076-2.083 2.08 2.08 0 00-2.076-2.082 2.08 2.08 0 00-2.078 2.082c0 1.15.93 2.083 2.078 2.083m6.23-4.998a2.08 2.08 0 002.076-2.082 2.08 2.08 0 00-2.076-2.082 2.08 2.08 0 00-2.077 2.082c0 1.15.93 2.082 2.077 2.082m6.438 4.165a2.08 2.08 0 002.076-2.083 2.08 2.08 0 00-2.076-2.082 2.08 2.08 0 00-2.076 2.082c0 1.15.93 2.083 2.076 2.083m-13.5-7.289c.804 0 1.454-.652 1.454-1.457s-.65-1.458-1.454-1.458c-.802 0-1.454.653-1.454 1.458 0 .805.652 1.458 1.454 1.458m4.985-4.165c.803 0 1.454-.653 1.454-1.458 0-.804-.65-1.457-1.454-1.457-.803 0-1.454.653-1.454 1.457 0 .805.65 1.458 1.454 1.458m2.908 15.2c.803 0 1.454-.653 1.454-1.458a1.455 1.455 0 10-2.909 0c0 .805.651 1.458 1.455 1.458" fill="#071278"/></svg>