<?xml version="1.0" encoding="UTF-8"?>
<svg width="50px" height="27px" viewBox="0 0 50 27" version="1.1" xmlns="http://www.w3.org/2000/svg" xmlns:xlink="http://www.w3.org/1999/xlink">
    <!-- Generator: Sketch 51.3 (57544) - http://www.bohemiancoding.com/sketch -->
    <title>what-are-bitcoin-private-keys</title>
    <desc>Created with Sketch.</desc>
    <defs>
        <path d="M22.5306962,21.7776 C23.2453083,21.0520726 23.870096,20.2422753 24.3914557,19.36584 C24.594245,19.4169914 24.8026476,19.4421508 25.0117089,19.44072 C25.6809465,19.4390683 26.3220755,19.1698093 26.7938429,18.6922659 C27.2656104,18.2147225 27.529307,17.5680779 27.5268354,16.8948 L27.5268354,16.5828 L31.0126582,16.5828 L33.459557,19.02888 L35.6614557,16.79496 L38.021519,19.15368 L40.285443,16.848 L42.5617722,18.8916 L45.0427848,16.31448 L45.8274051,16.31448 L48.708481,12.96672 L45.9173418,9.7812 L27.4834177,9.85296 L27.4834177,9.54096 C27.4613313,8.14982669 26.3295116,7.03622591 24.9465823,7.04496 L24.7605063,7.04496 C22.2525874,2.17412078 16.9139046,-0.519914422 11.5336047,0.370328882 C6.15330483,1.26057219 1.95349648,5.53287963 1.1283318,10.9552226 C0.303167114,16.3775655 3.04007819,21.7182855 7.9091904,24.1871713 C12.7783026,26.6560572 18.6736212,25.6923137 22.5151899,21.79944 L22.5306962,21.7776 Z" id="path-1"></path>
    </defs>
    <g id="✅-Website" stroke="none" stroke-width="1" fill="none" fill-rule="evenodd">
        <g id="what-are-bitcoin-private-keys" transform="translate(0.000000, 1.000000)">
            <g id="Group">
                <mask id="mask-2" fill="white">
                    <use xlink:href="#path-1"></use>
                </mask>
                <use id="Mask" fill="#D0D6E1" xlink:href="#path-1"></use>
                <path d="M3.56112026,19.8369028 L3.76540362,20.0345964 C8.64762164,24.7486487 16.4224282,24.6278578 21.1558484,19.7644152 C21.8653108,19.0397132 22.4848264,18.2321304 23.0009885,17.3591433 C23.1989702,17.410767 23.4026492,17.4373338 23.6072488,17.4382208 C24.2731417,17.4312665 24.9089945,17.1600532 25.3749082,16.6842527 C25.840822,16.2084522 26.0986257,15.5670453 26.091598,14.9011532 L26.091598,14.5650741 L29.538056,14.5650741 L31.9762768,17.0098847 L34.1574959,14.7825371 L36.5100494,17.1087315 L38.7439868,14.8286656 L40.9911038,16.8649094 L43.4490939,14.2948929 L44.2332784,14.2948929 L47.0800659,11 L48.8,13.1746293 L45.9532125,16.4695222 L45.1426689,16.4695222 L42.6846787,19.0395387 L41.2283361,17.5436573 C40.9403364,18.2653263 40.6057491,18.9675194 40.2266886,19.645799 C40.0092257,19.8632619 29.0240527,22.1828666 28.6352554,22.4069193 C28.246458,22.630972 17.8280066,27.6787479 17.3996705,27.6787479 C16.9713344,27.6787479 8.2398682,27.9686985 7.73904448,27.9686985 C7.23822076,27.9686985 2.46721582,24.4827018 2.22998353,24.1202636 C1.99275124,23.7578254 0.8,19.5799012 0.8,19.5799012" id="Shape" fill="#B7C1D2" fill-rule="nonzero" mask="url(#mask-2)"></path>
                <path d="M2.98341772,30.056 L3.18810127,30.25568 C5.96149977,32.9006681 9.7790521,34.1349681 13.5648669,33.6107204 C17.3506816,33.0864726 20.6947961,30.8604474 22.6547468,27.56 C23.410862,27.7661387 24.2193342,27.6009027 24.8355585,27.1142844 C25.4517828,26.6276661 25.8033616,25.8768363 25.7839241,25.08896 L25.7839241,24.75512 L29.2697468,24.75512 L31.7290506,27.18872 L33.9309494,24.9548 L36.3003165,27.31352 L38.5456329,25.02344 L40.821962,27.06704 L43.3029747,24.4868 L44.0875949,24.4868 L46.9686709,21.164 L48.7053797,23.348 L45.8243038,26.66768 L45.0148734,26.66768 L42.5338608,29.2448 L41.0576582,27.74096 C40.7750416,28.4745044 40.4445537,29.1884597 40.0683544,29.87816 C39.8512658,30.09656 28.6960127,32.43032 28.3362658,32.6456 C27.976519,32.86088 17.4012025,37.9496 16.9639241,37.9496 C16.5266456,37.9496 7.69424051,38.24288 7.20424051,38.24288 C6.71424051,38.24288 1.84835443,34.74848 1.62196203,34.38032 C1.39556962,34.01216 0.176772152,29.78144 0.176772152,29.78144" id="Shape" fill="#B7C1D2" mask="url(#mask-2)"></path>
            </g>
            <path d="M22.5306962,21.7776 C23.2453083,21.0520726 23.870096,20.2422753 24.3914557,19.36584 C24.594245,19.4169914 24.8026476,19.4421508 25.0117089,19.44072 C25.6809465,19.4390683 26.3220755,19.1698093 26.7938429,18.6922659 C27.2656104,18.2147225 27.529307,17.5680779 27.5268354,16.8948 L27.5268354,16.5828 L31.0126582,16.5828 L33.459557,19.02888 L35.6614557,16.79496 L38.021519,19.15368 L40.285443,16.848 L42.5617722,18.8916 L45.0427848,16.31448 L45.8274051,16.31448 L48.708481,12.96672 L45.9173418,9.7812 L27.4834177,9.85296 L27.4834177,9.54096 C27.4613313,8.14982669 26.3295116,7.03622591 24.9465823,7.04496 L24.7605063,7.04496 C22.2525874,2.17412078 16.9139046,-0.519914422 11.5336047,0.370328882 C6.15330483,1.26057219 1.95349648,5.53287963 1.1283318,10.9552226 C0.303167114,16.3775655 3.04007819,21.7182855 7.9091904,24.1871713 C12.7783026,26.6560572 18.6736212,25.6923137 22.5151899,21.79944 L22.5306962,21.7776 Z" id="Shape" stroke="#12326B" stroke-width="0.68" stroke-linecap="square" fill-rule="nonzero"></path>
            <path d="M44.8908228,12.73584 L26.2584177,12.80514" id="Shape" stroke="#12326B" stroke-width="0.68" stroke-linecap="round" stroke-linejoin="round"></path>
            <ellipse id="Oval" stroke="#12326B" stroke-width="0.68" fill="#FFFFFF" fill-rule="nonzero" stroke-linecap="round" stroke-linejoin="round" transform="translate(9.416135, 12.870636) rotate(-0.220000) translate(-9.416135, -12.870636) " cx="9.41613531" cy="12.870636" rx="3.57575949" ry="3.59736"></ellipse>
            <path d="M19.1720253,18.65448 C18.8079406,18.6561383 18.4581578,18.5120077 18.1998372,18.2538826 C17.9415166,17.9957574 17.7958833,17.6448469 17.7950633,17.27856 L17.7950633,8.44584 C17.7934149,8.07955594 17.9366801,7.72766015 18.1932553,7.46777907 C18.4498305,7.20789799 18.798634,7.06138495 19.1627215,7.06056 C19.9197711,7.06056 20.533481,7.67797724 20.533481,8.4396 L20.533481,17.2692 C20.5351294,17.6354841 20.3918642,17.9873798 20.135289,18.2472609 C19.8787138,18.507142 19.5299103,18.653655 19.1658228,18.65448 L19.1720253,18.65448 Z" id="Shape" fill="#EF476F"></path>
            <path d="M18.0710759,16.07424 C18.0710759,16.07424 20.3101899,16.88544 20.1706329,10.57056 L20.7164557,10.27728 L20.6792405,17.38464 L20.2636709,18.14904 C20.2636709,18.14904 19.4666456,18.56712 19.3332911,18.62016 C19.1999367,18.6732 18.6106962,18.72936 18.5362658,18.62016 C18.4618354,18.51096 18.0493671,17.81208 18.0493671,17.81208 C17.958361,17.6323615 17.8846294,17.4443072 17.8291772,17.25048 C17.8167722,17.16 18.0710759,16.07424 18.0710759,16.07424 Z" id="Shape" fill="#DB4166"></path>
            <path d="M19.1720253,18.65448 C18.8079406,18.6561383 18.4581578,18.5120077 18.1998372,18.2538826 C17.9415166,17.9957574 17.7958833,17.6448469 17.7950633,17.27856 L17.7950633,8.44584 C17.7934149,8.07955594 17.9366801,7.72766015 18.1932553,7.46777907 C18.4498305,7.20789799 18.798634,7.06138495 19.1627215,7.06056 C19.9197711,7.06056 20.533481,7.67797724 20.533481,8.4396 L20.533481,17.2692 C20.5351294,17.6354841 20.3918642,17.9873798 20.135289,18.2472609 C19.8787138,18.507142 19.5299103,18.653655 19.1658228,18.65448 L19.1720253,18.65448 Z" id="Shape-Copy-7" stroke="#12326B" stroke-width="0.525" stroke-linecap="square" fill-rule="nonzero"></path>
        </g>
    </g>
</svg>