<svg width="16" height="19" viewBox="0 0 16 19" xmlns="http://www.w3.org/2000/svg"><path d="M7.996 4.208c.818 0 1.845-.553 2.456-1.291.553-.669.957-1.603.957-2.537 0-.127-.012-.254-.035-.357-.91.034-2.006.61-2.663 1.383-.52.588-.992 1.51-.992 2.456 0 .139.023.277.035.323.057.012.15.023.242.023zM5.113 18.159c1.119 0 1.615-.75 3.01-.75 1.418 0 1.73.727 2.974.727 1.223 0 2.041-1.13 2.814-2.237.864-1.268 1.222-2.513 1.245-2.57-.08-.024-2.421-.98-2.421-3.667 0-2.33 1.844-3.379 1.948-3.46-1.222-1.752-3.078-1.798-3.586-1.798-1.372 0-2.49.83-3.193.83-.761 0-1.764-.784-2.952-.784-2.26 0-4.554 1.868-4.554 5.396 0 2.19.853 4.508 1.902 6.007.9 1.268 1.683 2.306 2.813 2.306z" fill="#FFF"/></svg>